<svg width="200" height="32" viewBox="0 0 200 32" fill="none" xmlns="http://www.w3.org/2000/svg">
<path d="M40.3267 23.7533C39.995 23.4137 39.8291 22.9556 39.8291 22.3791V7.3335C39.9713 7.29796 40.2003 7.25454 40.5162 7.19925C40.8321 7.14397 41.1402 7.12027 41.4482 7.12027C42.0958 7.12027 42.5697 7.23874 42.8777 7.47173C43.1818 7.70472 43.3358 8.13515 43.3358 8.76698V21.3839H50.2662C50.357 21.53 50.4439 21.7196 50.5347 21.9644C50.6256 22.2053 50.669 22.4738 50.669 22.7581C50.669 23.2439 50.5545 23.6151 50.3333 23.8757C50.1082 24.1363 49.8002 24.2666 49.4014 24.2666H41.6891C41.1125 24.2666 40.6584 24.0968 40.3267 23.7533Z" fill="black"/>
<path d="M55.7773 19.002C56.03 19.9182 56.496 20.5856 57.1791 20.9963C57.8623 21.4109 58.7074 21.6162 59.7144 21.6162C60.4686 21.6162 61.1676 21.5057 61.8034 21.2806C62.4431 21.0555 62.9565 20.8185 63.3553 20.5658C63.608 20.708 63.8134 20.9094 63.9753 21.1581C64.1372 21.4109 64.2162 21.6794 64.2162 21.9677C64.2162 22.327 64.0938 22.6469 63.8529 22.9233C63.612 23.2037 63.2763 23.4407 62.8538 23.6381C62.4312 23.8356 61.9337 23.9896 61.3571 24.0962C60.7806 24.2028 60.1606 24.2581 59.4972 24.2581C58.4349 24.2581 57.4714 24.112 56.5986 23.8276C55.7259 23.5394 54.9796 23.105 54.3596 22.5205C53.7396 21.9361 53.2539 21.2134 52.9024 20.3486C52.551 19.4877 52.3772 18.4807 52.3772 17.3277C52.3772 16.1746 52.547 15.2426 52.8906 14.4173C53.2302 13.5919 53.6962 12.8969 54.2806 12.3401C54.865 11.7833 55.5443 11.3687 56.3143 11.1002C57.0883 10.8316 57.9057 10.6974 58.7666 10.6974C59.6275 10.6974 60.4568 10.8356 61.1952 11.1159C61.9337 11.3963 62.5616 11.7794 63.0828 12.2769C63.6041 12.7706 64.0148 13.3629 64.311 14.0579C64.6071 14.749 64.7572 15.4993 64.7572 16.3088C64.7572 16.8104 64.6269 17.1895 64.3662 17.4422C64.1056 17.6949 63.7423 17.8568 63.2724 17.9279L55.7773 19.006V19.002ZM58.7706 13.2602C57.8899 13.2602 57.1515 13.5525 56.5591 14.1369C55.9668 14.7214 55.6311 15.5506 55.5601 16.6326L61.5467 15.7441C61.4756 15.0807 61.215 14.5002 60.7648 14.0066C60.3146 13.513 59.6512 13.2642 58.7706 13.2642V13.2602Z" fill="black"/>
<path d="M72.0623 10.7011C73.8236 10.7011 75.2294 11.0802 76.2798 11.8345C77.3302 12.5887 77.8554 13.7576 77.8554 15.3412V21.5687C77.8554 21.9991 77.7488 22.3427 77.5316 22.5915C77.3144 22.8442 77.0459 23.0693 76.7221 23.2667C76.2206 23.5708 75.5808 23.8156 74.8068 23.9933C74.0328 24.171 73.1522 24.2619 72.165 24.2619C70.3682 24.2619 68.9505 23.9144 67.9199 23.2233C66.8852 22.5322 66.3679 21.4937 66.3679 20.1076C66.3679 18.9031 66.751 17.983 67.5131 17.3433C68.2753 16.7036 69.3889 16.3126 70.8421 16.1704L74.5344 15.7914V15.3056C74.5344 14.6224 74.2856 14.1209 73.792 13.7971C73.2983 13.4733 72.5994 13.3114 71.703 13.3114C71 13.3114 70.3169 13.3983 69.6535 13.5681C68.99 13.7379 68.3937 13.9511 67.8725 14.1999C67.675 14.0578 67.5092 13.8643 67.3749 13.6194C67.2406 13.3746 67.1735 13.11 67.1735 12.8257C67.1735 12.4663 67.2604 12.1741 67.4302 11.949C67.6 11.7239 67.8764 11.5225 68.2516 11.3409C68.7728 11.1237 69.3652 10.9618 70.0326 10.8552C70.696 10.7485 71.3712 10.6932 72.0544 10.6932L72.0623 10.7011ZM72.1729 21.6753C72.6942 21.6753 73.172 21.6279 73.6024 21.5252C74.0328 21.4265 74.3488 21.3041 74.5462 21.1619V18.1686L71.932 18.4095C71.2133 18.4806 70.6644 18.6386 70.2853 18.8794C69.9062 19.1203 69.7206 19.5034 69.7206 20.0246C69.7206 20.5459 69.9141 20.9487 70.3011 21.237C70.6881 21.5252 71.312 21.6674 72.1768 21.6674L72.1729 21.6753Z" fill="black"/>
<path d="M83.9374 24.0448C83.7755 24.0804 83.5583 24.1238 83.2898 24.1791C83.0213 24.2344 82.7132 24.2581 82.3736 24.2581C81.7457 24.2581 81.2758 24.1396 80.9718 23.9066C80.6677 23.6736 80.5137 23.259 80.5137 22.6667V13.9039C80.5137 13.4379 80.6203 13.043 80.8375 12.7192C81.0547 12.3954 81.3666 12.1071 81.7813 11.8584C82.3381 11.5187 83.0252 11.2384 83.8426 11.0212C84.6601 10.804 85.5446 10.6974 86.5003 10.6974C88.2062 10.6974 89.0632 11.2265 89.0632 12.2888C89.0632 12.5415 89.0237 12.7784 88.9408 13.0035C88.8618 13.2286 88.7749 13.4142 88.6841 13.5564C88.2694 13.4656 87.7561 13.4221 87.1479 13.4221C86.5398 13.4221 85.9237 13.4932 85.3669 13.6393C84.8101 13.7815 84.3323 13.9632 83.9374 14.1803V24.0488V24.0448Z" fill="black"/>
<path d="M99.1706 13.9355C98.7283 13.5762 98.132 13.3945 97.3777 13.3945C96.8565 13.3945 96.3747 13.4577 95.9364 13.584C95.4941 13.7104 95.115 13.8723 94.7912 14.0698V24.0448C94.6293 24.0804 94.4121 24.1238 94.1435 24.1791C93.875 24.2344 93.567 24.2581 93.2274 24.2581C92.5995 24.2581 92.1296 24.1396 91.8255 23.9066C91.5214 23.6736 91.3674 23.259 91.3674 22.6667V13.7973C91.3674 13.3668 91.4583 13.0154 91.636 12.7469C91.8137 12.4783 92.094 12.2177 92.4731 11.965C92.9944 11.6056 93.6855 11.3055 94.5503 11.0607C95.4112 10.8198 96.3668 10.6974 97.4093 10.6974C99.2614 10.6974 100.695 11.108 101.71 11.9255C102.725 12.7429 103.234 13.9434 103.234 15.523V24.0448C103.092 24.0804 102.879 24.1238 102.602 24.1791C102.322 24.2344 102.022 24.2581 101.698 24.2581C101.05 24.2581 100.58 24.1396 100.284 23.9066C99.988 23.6736 99.8379 23.259 99.8379 22.6667V15.6296C99.8379 14.8556 99.6168 14.2909 99.1785 13.9316L99.1706 13.9355Z" fill="black"/>
<path d="M106.202 7.10127C106.202 6.65109 106.36 6.26803 106.679 5.95211C106.999 5.6362 107.402 5.4743 107.9 5.4743C108.397 5.4743 108.8 5.63225 109.108 5.95211C109.416 6.26803 109.574 6.65504 109.574 7.10127C109.574 7.54751 109.42 7.95819 109.108 8.2741C108.796 8.59002 108.393 8.75194 107.9 8.75194C107.406 8.75194 106.995 8.59397 106.679 8.2741C106.364 7.95819 106.202 7.5633 106.202 7.10127ZM106.202 10.916C106.344 10.8804 106.557 10.837 106.833 10.7817C107.114 10.7264 107.414 10.6988 107.738 10.6988C108.385 10.6988 108.855 10.8172 109.152 11.0502C109.448 11.2832 109.598 11.6978 109.598 12.2902V24.0462C109.456 24.0818 109.242 24.1252 108.966 24.1805C108.686 24.2358 108.385 24.2595 108.062 24.2595C107.414 24.2595 106.944 24.141 106.648 23.908C106.352 23.6751 106.202 23.2604 106.202 22.6681V10.912V10.916Z" fill="black"/>
<path d="M120.352 13.9355C119.91 13.5762 119.314 13.3945 118.56 13.3945C118.038 13.3945 117.557 13.4577 117.118 13.584C116.676 13.7104 116.297 13.8723 115.973 14.0698V24.0448C115.811 24.0804 115.594 24.1238 115.325 24.1791C115.057 24.2344 114.749 24.2581 114.409 24.2581C113.781 24.2581 113.311 24.1396 113.007 23.9066C112.703 23.6736 112.549 23.259 112.549 22.6667V13.7973C112.549 13.3668 112.64 13.0154 112.818 12.7469C112.996 12.4783 113.276 12.2177 113.655 11.965C114.176 11.6056 114.867 11.3055 115.732 11.0607C116.593 10.8198 117.549 10.6974 118.591 10.6974C120.443 10.6974 121.877 11.108 122.892 11.9255C123.907 12.7429 124.416 13.9434 124.416 15.523V24.0448C124.274 24.0804 124.061 24.1238 123.784 24.1791C123.504 24.2344 123.204 24.2581 122.88 24.2581C122.232 24.2581 121.762 24.1396 121.466 23.9066C121.17 23.6736 121.02 23.259 121.02 22.6667V15.6296C121.02 14.8556 120.799 14.2909 120.36 13.9316L120.352 13.9355Z" fill="black"/>
<path d="M145.573 11.7009C145.573 12.5104 145.36 13.2094 144.941 13.8057C144.519 14.398 143.887 14.8759 143.042 15.2352C144.085 15.5788 144.866 16.0882 145.388 16.7714C145.909 17.4545 146.17 18.2641 146.17 19.2C146.17 20.9059 145.55 22.1735 144.31 23.0028C143.07 23.8282 141.273 24.2428 138.915 24.2428C138.572 24.2428 138.208 24.2349 137.821 24.2151C137.434 24.1954 137.044 24.1638 136.649 24.1204C136.254 24.0769 135.859 24.0138 135.464 23.9308C135.069 23.8518 134.698 23.7571 134.358 23.6465C133.497 23.3582 133.063 22.8291 133.063 22.0551V8.86949C133.063 8.52988 133.154 8.26925 133.332 8.0876C133.509 7.9099 133.762 7.76378 134.086 7.65716C134.698 7.45971 135.409 7.32149 136.214 7.23857C137.024 7.15959 137.869 7.11615 138.749 7.11615C140.925 7.11615 142.604 7.49131 143.792 8.23371C144.977 8.98007 145.573 10.1332 145.573 11.697V11.7009ZM136.459 14.1808H139.184C140.155 14.1808 140.878 13.9834 141.356 13.5885C141.834 13.1936 142.071 12.6447 142.071 11.9457C142.071 10.5241 140.973 9.81725 138.781 9.81725C138.331 9.81725 137.904 9.837 137.502 9.87254C137.099 9.90808 136.751 9.95151 136.463 10.0068V14.1848L136.459 14.1808ZM142.608 19.0618C142.608 18.343 142.351 17.7783 141.838 17.3637C141.324 16.9491 140.586 16.7437 139.614 16.7437H136.459V21.2455C136.799 21.3364 137.209 21.3995 137.687 21.4351C138.165 21.4706 138.635 21.4904 139.101 21.4904C140.199 21.4904 141.056 21.2969 141.676 20.9099C142.296 20.5229 142.608 19.9068 142.608 19.0618Z" fill="black"/>
<path d="M161.269 17.4656C161.269 18.5081 161.111 19.448 160.795 20.2812C160.479 21.1184 160.037 21.8332 159.461 22.4255C158.884 23.0178 158.193 23.472 157.383 23.7879C156.574 24.1038 155.666 24.2578 154.659 24.2578C153.652 24.2578 152.743 24.0999 151.934 23.7879C151.124 23.472 150.433 23.0257 149.857 22.4413C149.28 21.8568 148.838 21.146 148.522 20.3128C148.206 19.4756 148.052 18.5279 148.052 17.4696C148.052 16.4112 148.21 15.4872 148.522 14.65C148.838 13.8128 149.284 13.1059 149.869 12.5215C150.453 11.9371 151.148 11.4869 151.958 11.1749C152.767 10.859 153.663 10.705 154.655 10.705C155.646 10.705 156.542 10.8629 157.352 11.1749C158.161 11.4908 158.856 11.9449 159.441 12.5373C160.025 13.1296 160.475 13.8444 160.787 14.6816C161.103 15.5187 161.261 16.4468 161.261 17.4735L161.269 17.4656ZM154.663 13.3942C153.691 13.3942 152.929 13.7496 152.372 14.4604C151.815 15.1712 151.535 16.1743 151.535 17.4656C151.535 18.7569 151.807 19.7836 152.356 20.4865C152.905 21.1895 153.671 21.537 154.663 21.537C155.654 21.537 156.42 21.1816 156.969 20.4708C157.518 19.7599 157.79 18.7569 157.79 17.4656C157.79 16.1743 157.51 15.1712 156.953 14.4604C156.396 13.7496 155.63 13.3942 154.663 13.3942Z" fill="black"/>
<path d="M168.842 10.7011C170.603 10.7011 172.009 11.0802 173.06 11.8345C174.11 12.5887 174.635 13.7576 174.635 15.3412V21.5687C174.635 21.9991 174.529 22.3427 174.311 22.5915C174.094 22.8442 173.826 23.0693 173.502 23.2667C173 23.5708 172.361 23.8156 171.587 23.9933C170.813 24.171 169.932 24.2619 168.945 24.2619C167.148 24.2619 165.73 23.9144 164.7 23.2233C163.665 22.5322 163.148 21.4937 163.148 20.1076C163.148 18.9031 163.531 17.983 164.293 17.3433C165.055 16.7036 166.169 16.3126 167.622 16.1704L171.314 15.7914V15.3056C171.314 14.6224 171.065 14.1209 170.572 13.7971C170.078 13.4733 169.379 13.3114 168.483 13.3114C167.78 13.3114 167.097 13.3983 166.433 13.5681C165.77 13.7379 165.174 13.9511 164.652 14.1999C164.455 14.0578 164.289 13.8643 164.155 13.6194C164.02 13.3746 163.953 13.11 163.953 12.8257C163.953 12.4663 164.04 12.1741 164.21 11.949C164.38 11.7239 164.656 11.5225 165.031 11.3409C165.553 11.1237 166.145 10.9618 166.812 10.8552C167.476 10.7485 168.151 10.6932 168.834 10.6932L168.842 10.7011ZM168.949 21.6753C169.47 21.6753 169.948 21.6279 170.378 21.5252C170.809 21.4265 171.125 21.3041 171.322 21.1619V18.1686L168.708 18.4095C167.989 18.4806 167.44 18.6386 167.061 18.8794C166.682 19.1203 166.496 19.5034 166.496 20.0246C166.496 20.5459 166.69 20.9487 167.077 21.237C167.464 21.5252 168.088 21.6674 168.953 21.6674L168.949 21.6753Z" fill="black"/>
<path d="M180.923 24.0448C180.761 24.0804 180.544 24.1238 180.275 24.1791C180.007 24.2344 179.699 24.2581 179.359 24.2581C178.731 24.2581 178.261 24.1396 177.957 23.9066C177.653 23.6736 177.499 23.259 177.499 22.6667V13.9039C177.499 13.4379 177.606 13.043 177.823 12.7192C178.04 12.3954 178.352 12.1071 178.767 11.8584C179.324 11.5187 180.011 11.2384 180.828 11.0212C181.646 10.804 182.53 10.6974 183.486 10.6974C185.192 10.6974 186.049 11.2265 186.049 12.2888C186.049 12.5415 186.009 12.7784 185.926 13.0035C185.847 13.2286 185.76 13.4142 185.67 13.5564C185.255 13.4656 184.742 13.4221 184.134 13.4221C183.525 13.4221 182.909 13.4932 182.353 13.6393C181.796 13.7815 181.318 13.9632 180.923 14.1803V24.0488V24.0448Z" fill="black"/>
<path d="M199.999 21.3798C199.999 21.7944 199.908 22.1262 199.731 22.3789C199.549 22.6316 199.281 22.8725 198.921 23.1055C198.471 23.3938 197.879 23.6583 197.14 23.8992C196.402 24.1401 195.549 24.2625 194.577 24.2625C192.421 24.2625 190.707 23.7097 189.44 22.604C188.172 21.4983 187.54 19.8042 187.54 17.5217C187.54 16.337 187.71 15.3142 188.054 14.4612C188.393 13.6083 188.859 12.9014 189.444 12.3446C190.028 11.7878 190.715 11.3731 191.505 11.1046C192.295 10.8361 193.148 10.7018 194.068 10.7018C194.554 10.7018 195.012 10.7532 195.442 10.8519C195.873 10.9506 196.26 11.073 196.603 11.2152V7.33334C196.745 7.27805 196.959 7.23066 197.235 7.18328C197.515 7.13984 197.815 7.11615 198.139 7.11615C198.787 7.11615 199.257 7.23462 199.553 7.46761C199.849 7.7006 199.999 8.11525 199.999 8.70759V21.3798ZM196.603 13.9637C196.335 13.8017 196.019 13.6675 195.659 13.5609C195.3 13.4542 194.913 13.399 194.498 13.399C193.491 13.399 192.654 13.7228 191.991 14.3704C191.327 15.018 190.992 16.0763 190.992 17.5532C190.992 18.9393 191.312 19.9503 191.947 20.586C192.587 21.2258 193.452 21.5417 194.55 21.5417C195.016 21.5417 195.418 21.4864 195.75 21.3798C196.082 21.2732 196.366 21.1468 196.599 21.0007V13.9637H196.603Z" fill="black"/>
<path d="M15.6063 0C6.98571 0 0 6.98967 0 15.6063C0 24.2229 6.98966 31.2126 15.6063 31.2126C24.2229 31.2126 31.2126 24.2229 31.2126 15.6063C31.2126 6.98967 24.2229 0 15.6063 0ZM24.7679 18.568L17.3991 25.9368C16.7199 26.6081 15.63 26.6042 14.9547 25.9289L4.07138 15.0455C4.15036 14.9152 4.26883 14.7296 4.43073 14.4927C4.59264 14.2518 4.79404 14.0149 5.02703 13.7819C5.04282 13.7661 5.06257 13.7463 5.07836 13.7305C5.07836 13.7226 5.08626 13.7187 5.09416 13.7148C5.18104 13.6318 5.26396 13.5568 5.34689 13.4897C5.69045 13.2053 6.00637 13.0474 6.29859 13.0118C6.68164 12.9684 7.08838 13.1579 7.51487 13.5884L16.1789 22.2524L22.3156 16.1157C22.9948 15.4365 22.9948 14.3426 22.3156 13.6634C21.66 13.0079 20.6175 12.9842 19.9343 13.5923C19.9343 13.5923 19.9343 13.5963 19.9265 13.6002C19.9028 13.62 19.883 13.6397 19.8633 13.6634L16.3329 17.1938C16.2026 17.1148 16.017 16.9963 15.78 16.8344C15.5392 16.6725 15.3022 16.4751 15.0692 16.2421C15.006 16.1789 14.9468 16.1157 14.8915 16.0565C14.5361 15.6616 14.3387 15.2983 14.2992 14.9666C14.2518 14.5835 14.4453 14.1768 14.8757 13.7503L14.8915 13.7345C14.9113 13.7147 14.931 13.691 14.9547 13.6713L17.411 11.2151C18.0902 10.5358 18.0902 9.44196 17.411 8.76274C16.7357 8.08352 15.6379 8.08352 14.9587 8.76274L11.4283 12.2931C11.298 12.2141 11.1124 12.0957 10.8754 11.9338C10.6346 11.7719 10.3976 11.5744 10.1646 11.3414C10.1014 11.2782 10.0422 11.219 9.99087 11.1558C9.63546 10.7609 9.43801 10.3976 9.39852 10.0659C9.35114 9.68287 9.54464 9.27612 9.97507 8.84963L12.5024 6.32229C13.5173 5.30741 14.852 4.798 16.1828 4.798C17.5136 4.798 18.8484 5.30741 19.8633 6.32229C20.8031 7.26214 21.3086 8.47843 21.3797 9.7105C22.6117 9.77763 23.828 10.2831 24.7679 11.2269C25.7828 12.2418 26.2922 13.5765 26.2922 14.9073C26.2922 16.2381 25.7828 17.5689 24.7679 18.5878V18.568Z" fill="black"/>
</svg>
