<svg width="32" height="32" viewBox="0 0 32 32" fill="none" xmlns="http://www.w3.org/2000/svg">
<path id="formal" d="M15.6063 0C6.98571 0 0 6.98967 0 15.6063C0 24.2229 6.98966 31.2126 15.6063 31.2126C24.2229 31.2126 31.2126 24.2229 31.2126 15.6063C31.2126 6.98967 24.2229 0 15.6063 0ZM24.7679 18.568L17.3991 25.9368C16.7199 26.6081 15.63 26.6042 14.9547 25.9289L4.07138 15.0455C4.15036 14.9152 4.26883 14.7296 4.43073 14.4927C4.59264 14.2518 4.79404 14.0149 5.02703 13.7819C5.04282 13.7661 5.06257 13.7463 5.07836 13.7305C5.07836 13.7226 5.08626 13.7187 5.09416 13.7148C5.18104 13.6318 5.26396 13.5568 5.34689 13.4897C5.69045 13.2053 6.00637 13.0474 6.29859 13.0118C6.68164 12.9684 7.08838 13.1579 7.51487 13.5884L16.1789 22.2524L22.3156 16.1157C22.9948 15.4365 22.9948 14.3426 22.3156 13.6634C21.66 13.0079 20.6175 12.9842 19.9343 13.5923C19.9343 13.5923 19.9343 13.5963 19.9265 13.6002C19.9028 13.62 19.883 13.6397 19.8633 13.6634L16.3329 17.1938C16.2026 17.1148 16.017 16.9963 15.78 16.8344C15.5392 16.6725 15.3022 16.4751 15.0692 16.2421C15.006 16.1789 14.9468 16.1157 14.8915 16.0565C14.5361 15.6616 14.3387 15.2983 14.2992 14.9666C14.2518 14.5835 14.4453 14.1768 14.8757 13.7503L14.8915 13.7345C14.9113 13.7147 14.931 13.691 14.9547 13.6713L17.411 11.2151C18.0902 10.5358 18.0902 9.44196 17.411 8.76274C16.7357 8.08352 15.6379 8.08352 14.9587 8.76274L11.4283 12.2931C11.298 12.2141 11.1124 12.0957 10.8754 11.9338C10.6346 11.7719 10.3976 11.5744 10.1646 11.3414C10.1014 11.2782 10.0422 11.219 9.99087 11.1558C9.63546 10.7609 9.43801 10.3976 9.39852 10.0659C9.35114 9.68287 9.54464 9.27612 9.97507 8.84963L12.5024 6.32229C13.5173 5.30741 14.852 4.798 16.1828 4.798C17.5136 4.798 18.8484 5.30741 19.8633 6.32229C20.8031 7.26214 21.3086 8.47843 21.3797 9.7105C22.6117 9.77763 23.828 10.2831 24.7679 11.2269C25.7828 12.2418 26.2922 13.5765 26.2922 14.9073C26.2922 16.2381 25.7828 17.5689 24.7679 18.5878V18.568Z" fill="black"/>
</svg>
